<svg xmlns="http://www.w3.org/2000/svg" version="1.1" xmlns:xlink="http://www.w3.org/1999/xlink" xmlns:svgjs="http://svgjs.dev/svgjs" width="1000" height="1000" viewBox="0 0 1000 1000"><rect width="1000" height="1000" fill="#ffffff"></rect><g transform="matrix(0.7,0,0,0.7,149.57575757575756,293.3127135116599)"><svg viewBox="0 0 396 234" data-background-color="#ffffff" preserveAspectRatio="xMidYMid meet" height="590" width="1000" xmlns="http://www.w3.org/2000/svg" xmlns:xlink="http://www.w3.org/1999/xlink"><g id="tight-bounds" transform="matrix(1,0,0,1,0.2400000000000091,0.1061140755108454)"><svg viewBox="0 0 395.52 233.78777203036918" height="233.78777203036918" width="395.52"><g><svg viewBox="0 0 397.4975999999999 234.956710890521" height="233.78777203036918" width="395.52"><g><rect width="397.4975999999999" height="3.7076910093023" x="0" y="132.61060221097478" fill="#fabc2a" opacity="1" stroke-width="0" stroke="transparent" fill-opacity="1" class="rect-o-0" data-fill-palette-color="primary" rx="1%" id="o-0" data-palette-color="#fabc2a"></rect></g><g transform="matrix(1,0,0,1,0.9887999999999693,146.0242906268276)"><svg viewBox="0 0 395.52 88.93242026369339" height="88.93242026369339" width="395.52"><g><svg viewBox="0 0 395.52 88.93242026369339" height="88.93242026369339" width="395.52"><g><svg viewBox="0 0 395.52 41.11386759581882" height="41.11386759581882" width="395.52"><g transform="matrix(1,0,0,1,0,0)"><svg width="395.52" viewBox="4.349999904632568 -35.150001525878906 344.3800048828125 35.80000305175781" height="41.11386759581882" data-palette-color="#fabc2a"><path d="M15.55-34.9L15.55-34.9Q19.8-34.9 22.3-34.13 24.8-33.35 25.93-31.4 27.05-29.45 27.05-25.9L27.05-25.9Q27.05-22.2 25.68-20.25 24.3-18.3 21.2-18L21.2-18 21.2-17.8Q25.05-17.45 26.58-15.1 28.1-12.75 28.1-8.6L28.1-8.6Q28.1-5.05 27-3.1 25.9-1.15 23.48-0.38 21.05 0.4 17.1 0.4L17.1 0.4Q14.15 0.4 12.03 0.38 9.9 0.35 8.1 0.25 6.3 0.15 4.35 0L4.35 0 5.05-3.5Q6.15-3.45 9.22-3.4 12.3-3.35 16.4-3.35L16.4-3.35Q19.15-3.35 20.73-3.83 22.3-4.3 22.98-5.6 23.65-6.9 23.65-9.35L23.65-9.35Q23.65-12.05 22.95-13.5 22.25-14.95 20.6-15.55 18.95-16.15 16.1-16.2L16.1-16.2 5-16.2 5-19.55 16.05-19.55Q18.55-19.6 20.03-20.08 21.5-20.55 22.15-21.83 22.8-23.1 22.8-25.4L22.8-25.4Q22.8-27.75 22.1-29 21.4-30.25 19.78-30.7 18.15-31.15 15.35-31.15L15.35-31.15Q12.9-31.15 10.95-31.15 9-31.15 7.53-31.13 6.05-31.1 5.05-31L5.05-31 4.35-34.5Q6.1-34.7 7.68-34.77 9.25-34.85 11.13-34.88 13-34.9 15.55-34.9ZM4.35-34.5L8.65-34.5 8.65 0 4.35 0 4.35-34.5ZM47.7-35.15L47.7-35.15Q51.45-35.15 54.07-34.25 56.7-33.35 58.27-31.28 59.85-29.2 60.57-25.75 61.3-22.3 61.3-17.25L61.3-17.25Q61.3-12.2 60.57-8.75 59.85-5.3 58.27-3.23 56.7-1.15 54.07-0.25 51.45 0.65 47.7 0.65L47.7 0.65Q43.95 0.65 41.32-0.25 38.7-1.15 37.1-3.23 35.5-5.3 34.77-8.75 34.05-12.2 34.05-17.25L34.05-17.25Q34.05-22.3 34.77-25.75 35.5-29.2 37.1-31.28 38.7-33.35 41.32-34.25 43.95-35.15 47.7-35.15ZM47.7-31.2L47.7-31.2Q44.3-31.2 42.32-29.9 40.35-28.6 39.52-25.58 38.7-22.55 38.7-17.25L38.7-17.25Q38.7-12 39.52-8.95 40.35-5.9 42.32-4.6 44.3-3.3 47.7-3.3L47.7-3.3Q51.1-3.3 53.07-4.6 55.05-5.9 55.87-8.95 56.7-12 56.7-17.25L56.7-17.25Q56.7-22.55 55.87-25.58 55.05-28.6 53.07-29.9 51.1-31.2 47.7-31.2ZM80.64-34.95L80.64-34.95Q84.64-34.95 87.09-34.08 89.55-33.2 90.67-31.05 91.8-28.9 91.8-25L91.8-25Q91.8-22.2 91.14-20.33 90.5-18.45 89.12-17.43 87.75-16.4 85.44-16.1L85.44-16.1 85.44-15.85Q86.3-15.65 87.12-15.03 87.94-14.4 88.64-13.38 89.34-12.35 89.69-10.9L89.69-10.9 93.05 0 88.34 0 85.3-10.8Q84.64-12.75 83.55-13.58 82.44-14.4 80.69-14.4L80.69-14.4Q77.64-14.4 75.39-14.43 73.14-14.45 71.64-14.5 70.14-14.55 69.24-14.55L69.24-14.55 69.39-18.2 80.55-18.2Q83.09-18.25 84.57-18.8 86.05-19.35 86.69-20.78 87.34-22.2 87.34-24.75L87.34-24.75Q87.34-27.3 86.69-28.68 86.05-30.05 84.57-30.6 83.09-31.15 80.55-31.15L80.55-31.15Q76.44-31.15 73.47-31.1 70.49-31.05 69.44-31.05L69.44-31.05 68.74-34.5Q70.64-34.7 72.3-34.8 73.94-34.9 75.92-34.93 77.89-34.95 80.64-34.95ZM68.74-34.5L73.09-34.5 73.09 0 68.74 0 68.74-34.5ZM111.54-34.95L111.54-34.95Q115.54-34.95 117.99-34.08 120.44-33.2 121.57-31.05 122.69-28.9 122.69-25L122.69-25Q122.69-22.2 122.04-20.33 121.39-18.45 120.02-17.43 118.64-16.4 116.34-16.1L116.34-16.1 116.34-15.85Q117.19-15.65 118.02-15.03 118.84-14.4 119.54-13.38 120.24-12.35 120.59-10.9L120.59-10.9 123.94 0 119.24 0 116.19-10.8Q115.54-12.75 114.44-13.58 113.34-14.4 111.59-14.4L111.59-14.4Q108.54-14.4 106.29-14.43 104.04-14.45 102.54-14.5 101.04-14.55 100.14-14.55L100.14-14.55 100.29-18.2 111.44-18.2Q113.99-18.25 115.47-18.8 116.94-19.35 117.59-20.78 118.24-22.2 118.24-24.75L118.24-24.75Q118.24-27.3 117.59-28.68 116.94-30.05 115.47-30.6 113.99-31.15 111.44-31.15L111.44-31.15Q107.34-31.15 104.37-31.1 101.39-31.05 100.34-31.05L100.34-31.05 99.64-34.5Q101.54-34.7 103.19-34.8 104.84-34.9 106.82-34.93 108.79-34.95 111.54-34.95ZM99.64-34.5L103.99-34.5 103.99 0 99.64 0 99.64-34.5ZM142.89-35.15L142.89-35.15Q146.64-35.15 149.27-34.25 151.89-33.35 153.47-31.28 155.04-29.2 155.77-25.75 156.49-22.3 156.49-17.25L156.49-17.25Q156.49-12.2 155.77-8.75 155.04-5.3 153.47-3.23 151.89-1.15 149.27-0.25 146.64 0.65 142.89 0.65L142.89 0.65Q139.14 0.65 136.52-0.25 133.89-1.15 132.29-3.23 130.69-5.3 129.97-8.75 129.24-12.2 129.24-17.25L129.24-17.25Q129.24-22.3 129.97-25.75 130.69-29.2 132.29-31.28 133.89-33.35 136.52-34.25 139.14-35.15 142.89-35.15ZM142.89-31.2L142.89-31.2Q139.49-31.2 137.52-29.9 135.54-28.6 134.72-25.58 133.89-22.55 133.89-17.25L133.89-17.25Q133.89-12 134.72-8.95 135.54-5.9 137.52-4.6 139.49-3.3 142.89-3.3L142.89-3.3Q146.29-3.3 148.27-4.6 150.24-5.9 151.06-8.95 151.89-12 151.89-17.25L151.89-17.25Q151.89-22.55 151.06-25.58 150.24-28.6 148.27-29.9 146.29-31.2 142.89-31.2ZM200.79-34.5L205.44-34.5 198.44-1.3Q198.29-0.75 197.84-0.38 197.39 0 196.69 0L196.69 0 191.69 0Q191.04 0 190.56-0.38 190.09-0.75 189.99-1.35L189.99-1.35 184.59-27.3Q184.39-28.3 184.19-29.28 183.99-30.25 183.79-31.2L183.79-31.2 182.74-31.2Q182.54-30.25 182.36-29.25 182.19-28.25 181.99-27.3L181.99-27.3 176.64-1.35Q176.49-0.75 176.01-0.38 175.54 0 174.89 0L174.89 0 169.84 0Q169.19 0 168.71-0.38 168.24-0.75 168.14-1.3L168.14-1.3 161.14-34.5 165.79-34.5 171.19-7.6Q171.39-6.65 171.54-5.58 171.69-4.5 171.89-3.35L171.89-3.35 173.04-3.35Q173.24-4.5 173.44-5.55 173.64-6.6 173.84-7.6L173.84-7.6 179.19-33.05Q179.29-33.7 179.76-34.1 180.24-34.5 180.89-34.5L180.89-34.5 185.69-34.5Q186.34-34.5 186.79-34.1 187.24-33.7 187.39-33.05L187.39-33.05 192.74-7.6Q192.99-6.5 193.16-5.45 193.34-4.4 193.44-3.35L193.44-3.35 194.69-3.35Q194.84-4.4 194.99-5.48 195.14-6.55 195.34-7.55L195.34-7.55 200.79-34.5ZM229.43-34.5L234.03-34.5Q234.63-34.5 235.08-34.18 235.53-33.85 235.68-33.3L235.68-33.3 246.78 0 242.23 0 233.28-28.3Q233.08-29 232.86-29.73 232.63-30.45 232.43-31.1L232.43-31.1 231.03-31.1Q230.83-30.45 230.63-29.73 230.43-29 230.18-28.3L230.18-28.3 221.23 0 216.68 0 227.78-33.3Q227.93-33.85 228.38-34.18 228.83-34.5 229.43-34.5L229.43-34.5ZM222.93-14.6L240.43-14.6 240.43-10.8 222.93-10.8 222.93-14.6ZM287.38-34.5L292.03-34.5 285.03-1.3Q284.88-0.75 284.43-0.38 283.98 0 283.28 0L283.28 0 278.28 0Q277.63 0 277.16-0.38 276.68-0.75 276.58-1.35L276.58-1.35 271.18-27.3Q270.98-28.3 270.78-29.28 270.58-30.25 270.38-31.2L270.38-31.2 269.33-31.2Q269.13-30.25 268.96-29.25 268.78-28.25 268.58-27.3L268.58-27.3 263.23-1.35Q263.08-0.75 262.61-0.38 262.13 0 261.48 0L261.48 0 256.43 0Q255.78 0 255.31-0.38 254.83-0.75 254.73-1.3L254.73-1.3 247.73-34.5 252.38-34.5 257.78-7.6Q257.98-6.65 258.13-5.58 258.28-4.5 258.48-3.35L258.48-3.35 259.63-3.35Q259.83-4.5 260.03-5.55 260.23-6.6 260.43-7.6L260.43-7.6 265.78-33.05Q265.88-33.7 266.36-34.1 266.83-34.5 267.48-34.5L267.48-34.5 272.28-34.5Q272.93-34.5 273.38-34.1 273.83-33.7 273.98-33.05L273.98-33.05 279.33-7.6Q279.58-6.5 279.76-5.45 279.93-4.4 280.03-3.35L280.03-3.35 281.28-3.35Q281.43-4.4 281.58-5.48 281.73-6.55 281.93-7.55L281.93-7.55 287.38-34.5ZM305.73-34.5L310.33-34.5Q310.93-34.5 311.38-34.18 311.83-33.85 311.98-33.3L311.98-33.3 323.08 0 318.53 0 309.58-28.3Q309.38-29 309.15-29.73 308.93-30.45 308.73-31.1L308.73-31.1 307.33-31.1Q307.13-30.45 306.93-29.73 306.73-29 306.48-28.3L306.48-28.3 297.53 0 292.98 0 304.08-33.3Q304.23-33.85 304.68-34.18 305.13-34.5 305.73-34.5L305.73-34.5ZM299.23-14.6L316.73-14.6 316.73-10.8 299.23-10.8 299.23-14.6ZM344.08-34.5L348.73-34.5 337.08-11.7 333.13-11.7 321.43-34.5 326.13-34.5 333.38-19.95Q333.83-19 334.2-18 334.58-17 334.93-16.05L334.93-16.05 335.28-16.05Q335.63-17 336.03-18 336.43-19 336.83-19.9L336.83-19.9 344.08-34.5ZM332.88-14.8L337.28-14.8 337.28 0 332.88 0 332.88-14.8Z" opacity="1" transform="matrix(1,0,0,1,0,0)" fill="#fabc2a" class="undefined-text-0" data-fill-palette-color="primary" id="text-0"></path></svg></g></svg></g><g transform="matrix(1,0,0,1,0,50.81986500236934)"><svg viewBox="0 0 395.52 38.11255526132404" height="38.11255526132404" width="395.52"><g transform="matrix(1,0,0,1,0,0)"><svg width="395.52" viewBox="1.600000023841858 -35.599998474121094 477.8899841308594 46.04999923706055" height="38.11255526132404" data-palette-color="#fabc2a"><path d="M42.95-34.5L45.1-34.5 36.5-0.7Q36.45-0.4 36.18-0.2 35.9 0 35.55 0L35.55 0 32.7 0Q32.35 0 32.1-0.2 31.85-0.4 31.75-0.75L31.75-0.75 24.9-28.95Q24.65-29.95 24.43-30.93 24.2-31.9 23.95-32.85L23.95-32.85 22.8-32.85Q22.55-31.9 22.33-30.93 22.1-29.95 21.85-28.95L21.85-28.95 15-0.75Q14.95-0.4 14.68-0.2 14.4 0 14.05 0L14.05 0 11.2 0Q10.8 0 10.55-0.2 10.3-0.4 10.2-0.7L10.2-0.7 1.6-34.5 3.8-34.5 11.1-5.35Q11.35-4.45 11.55-3.53 11.75-2.6 11.95-1.7L11.95-1.7 13.3-1.7Q13.55-2.6 13.75-3.5 13.95-4.4 14.15-5.3L14.15-5.3 21.1-33.7Q21.2-34.05 21.45-34.27 21.7-34.5 22.05-34.5L22.05-34.5 24.7-34.5Q25.05-34.5 25.3-34.27 25.55-34.05 25.65-33.7L25.65-33.7 32.6-5.35Q32.85-4.4 33.05-3.5 33.25-2.6 33.4-1.7L33.4-1.7 34.75-1.7Q35-2.6 35.2-3.5 35.4-4.4 35.6-5.3L35.6-5.3 42.95-34.5ZM67.99-24.7L67.99-24.7Q74.49-24.7 74.49-18.1L74.49-18.1 74.49 0 72.49 0 72.49-17.7Q72.49-20.45 71.29-21.68 70.09-22.9 67.54-22.9L67.54-22.9Q64.89-22.9 62.42-21.7 59.94-20.5 56.49-18.15L56.49-18.15 56.44-19.8Q59.49-22.1 62.37-23.4 65.24-24.7 67.99-24.7ZM54.74-35L56.74-35 56.79-24.55Q56.79-23.15 56.74-21.9 56.69-20.65 56.49-19.65L56.49-19.65 56.74-18.85 56.74 0 54.74 0 54.74-35ZM97.93-24.7L97.93-24.7Q100.18-24.7 101.78-24 103.38-23.3 104.21-21.78 105.03-20.25 105.03-17.7L105.03-17.7 105.03 0 103.53 0 103.13-5.3 103.03-5.65 103.03-17.7Q103.03-20 101.93-21.45 100.83-22.9 97.68-22.9L97.68-22.9Q95.18-22.9 92.26-22.68 89.33-22.45 86.63-22.15L86.63-22.15 86.43-23.65Q88.03-23.9 89.81-24.13 91.58-24.35 93.61-24.53 95.63-24.7 97.93-24.7ZM91.43-14.65L103.78-14.65 103.73-13.05 91.63-12.9Q89.53-12.85 88.51-11.8 87.48-10.75 87.48-8.75L87.48-8.75 87.48-6.05Q87.48-3.8 88.66-2.68 89.83-1.55 92.18-1.5L92.18-1.5Q93.98-1.45 96.08-2.13 98.18-2.8 100.18-4 102.18-5.2 103.58-6.65L103.58-6.65 103.58-4.9Q102.88-4.1 101.68-3.23 100.48-2.35 98.93-1.53 97.38-0.7 95.61-0.18 93.83 0.35 91.98 0.35L91.98 0.35Q89.98 0.35 88.51-0.38 87.03-1.1 86.23-2.5 85.43-3.9 85.43-5.9L85.43-5.9 85.43-8.9Q85.43-11.65 87.01-13.15 88.58-14.65 91.43-14.65L91.43-14.65ZM118.82-31.55L120.82-31.55 120.82-5.3Q120.82-3.35 121.8-2.43 122.77-1.5 124.67-1.5L124.67-1.5 128.87-1.5 129.12-0.05Q128.42 0.05 127.52 0.15 126.62 0.25 125.82 0.3 125.02 0.35 124.52 0.35L124.52 0.35Q121.72 0.35 120.27-1.05 118.82-2.45 118.82-5.1L118.82-5.1 118.82-31.55ZM119.17-24.1L129.42-24.1 129.42-22.4 114.47-22.4 114.47-23.85 119.17-24.1ZM161.25-24.7L161.25-24.7Q163.7-24.7 166.13-24.03 168.55-23.35 171.1-22.2L171.1-22.2 171-20.65Q168.15-21.75 165.98-22.33 163.8-22.9 161.5-22.9L161.5-22.9Q159-22.9 157.45-21.9 155.9-20.9 155.18-18.5 154.45-16.1 154.45-12.1L154.45-12.1Q154.45-8.05 155.15-5.68 155.85-3.3 157.4-2.25 158.95-1.2 161.45-1.2L161.45-1.2Q163-1.2 164.43-1.7 165.85-2.2 167.45-3.23 169.05-4.25 171-5.85L171-5.85 171.05-4.1Q168.55-1.9 166.13-0.65 163.7 0.6 161.05 0.6L161.05 0.6Q156.4 0.6 154.4-2.4 152.4-5.4 152.4-12.05L152.4-12.05Q152.4-16.65 153.3-19.43 154.2-22.2 156.15-23.45 158.1-24.7 161.25-24.7ZM170.7-35L172.7-35 172.7 0 171.2 0 170.9-4.2 170.7-4.45 170.7-21.3 170.9-22.1Q170.75-23.4 170.73-24.5 170.7-25.6 170.7-26.95L170.7-26.95 170.7-35ZM194.79-24.7L194.79-24.7Q198.79-24.7 201.14-23.48 203.49-22.25 204.52-19.48 205.54-16.7 205.54-12.05L205.54-12.05Q205.54-7.45 204.52-4.65 203.49-1.85 201.14-0.63 198.79 0.6 194.79 0.6L194.79 0.6Q190.89 0.6 188.49-0.63 186.09-1.85 185.07-4.65 184.04-7.45 184.04-12.05L184.04-12.05Q184.04-16.7 185.07-19.48 186.09-22.25 188.49-23.48 190.89-24.7 194.79-24.7ZM194.79-22.9L194.79-22.9Q191.59-22.9 189.69-21.9 187.79-20.9 186.97-18.55 186.14-16.2 186.14-12.05L186.14-12.05Q186.14-7.95 186.97-5.55 187.79-3.15 189.69-2.15 191.59-1.15 194.79-1.15L194.79-1.15Q197.99-1.15 199.89-2.15 201.79-3.15 202.64-5.55 203.49-7.95 203.49-12.05L203.49-12.05Q203.49-16.2 202.64-18.55 201.79-20.9 199.89-21.9 197.99-22.9 194.79-22.9ZM248.22-24.1L250.42-24.1 239.67 2.1Q239.02 3.6 238.3 4.95 237.57 6.3 236.57 7.43 235.57 8.55 234.27 9.33 232.97 10.1 231.17 10.45L231.17 10.45 230.87 9.2Q233.82 8.1 235.37 6.15 236.92 4.2 237.87 1.7L237.87 1.7 238.92-0.8Q239.27-1.65 239.62-2.63 239.97-3.6 240.32-4.4L240.32-4.4 248.22-24.1ZM227.47-24.1L229.62-24.1 237.52-4.35Q237.77-3.65 238.07-3 238.37-2.35 238.57-1.65L238.57-1.65 239.57-1.65 238.87 0 237.92 0Q237.67 0 237.42-0.15 237.17-0.3 237.07-0.6L237.07-0.6 227.47-24.1ZM269.01-24.7L269.01-24.7Q273.01-24.7 275.36-23.48 277.71-22.25 278.74-19.48 279.76-16.7 279.76-12.05L279.76-12.05Q279.76-7.45 278.74-4.65 277.71-1.85 275.36-0.63 273.01 0.6 269.01 0.6L269.01 0.6Q265.11 0.6 262.71-0.63 260.31-1.85 259.29-4.65 258.26-7.45 258.26-12.05L258.26-12.05Q258.26-16.7 259.29-19.48 260.31-22.25 262.71-23.48 265.11-24.7 269.01-24.7ZM269.01-22.9L269.01-22.9Q265.81-22.9 263.91-21.9 262.01-20.9 261.19-18.55 260.36-16.2 260.36-12.05L260.36-12.05Q260.36-7.95 261.19-5.55 262.01-3.15 263.91-2.15 265.81-1.15 269.01-1.15L269.01-1.15Q272.21-1.15 274.11-2.15 276.01-3.15 276.86-5.55 277.71-7.95 277.71-12.05L277.71-12.05Q277.71-16.2 276.86-18.55 276.01-20.9 274.11-21.9 272.21-22.9 269.01-22.9ZM290.9-24.1L292.9-24.1 292.9-6.4Q292.85-3.7 294.1-2.45 295.35-1.2 297.95-1.2L297.95-1.2Q300.45-1.2 302.8-2.4 305.15-3.6 308.4-5.9L308.4-5.9 308.55-4.25Q305.6-1.85 302.85-0.63 300.1 0.6 297.4 0.6L297.4 0.6Q290.9 0.6 290.9-6L290.9-6 290.9-24.1ZM308.15-24.1L310.15-24.1 310.15 0 308.6 0 308.4-4.45 308.15-5.25 308.15-24.1ZM350.88-24.7L350.88-24.7Q357.38-24.7 357.38-18.1L357.38-18.1 357.38 0 355.38 0 355.38-17.7Q355.38-20.45 354.18-21.68 352.98-22.9 350.43-22.9L350.43-22.9Q347.78-22.9 345.28-21.7 342.78-20.5 339.38-18.15L339.38-18.15 339.33-19.8Q342.33-22.2 345.21-23.45 348.08-24.7 350.88-24.7ZM337.63-24.1L339.23-24.1 339.43-19.65 339.58-18.85 339.58 0 337.63 0 337.63-24.1ZM379.02-24.7L379.02-24.7Q383.92-24.7 386.3-22.93 388.67-21.15 388.72-17.6L388.72-17.6Q388.82-14.4 387.6-12.73 386.37-11.05 383.42-11.05L383.42-11.05 369.42-11.05 369.42-12.7 383.12-12.7Q385.17-12.7 385.97-14 386.77-15.3 386.67-17.5L386.67-17.5Q386.62-20.35 384.77-21.63 382.92-22.9 379.12-22.9L379.12-22.9Q375.92-22.9 374.05-21.9 372.17-20.9 371.37-18.55 370.57-16.2 370.57-12.25L370.57-12.25Q370.57-8.05 371.5-5.63 372.42-3.2 374.45-2.2 376.47-1.2 379.67-1.2L379.67-1.2Q382.02-1.2 384.2-1.4 386.37-1.6 387.92-1.8L387.92-1.8 388.17-0.4Q387.27-0.1 385.72 0.13 384.17 0.35 382.47 0.48 380.77 0.6 379.42 0.6L379.42 0.6Q375.52 0.6 373.12-0.68 370.72-1.95 369.6-4.75 368.47-7.55 368.47-12.15L368.47-12.15Q368.47-16.8 369.55-19.55 370.62-22.3 372.95-23.5 375.27-24.7 379.02-24.7ZM409.01-24.7L409.01-24.7Q413.91-24.7 416.29-22.93 418.66-21.15 418.71-17.6L418.71-17.6Q418.81-14.4 417.59-12.73 416.36-11.05 413.41-11.05L413.41-11.05 399.41-11.05 399.41-12.7 413.11-12.7Q415.16-12.7 415.96-14 416.76-15.3 416.66-17.5L416.66-17.5Q416.61-20.35 414.76-21.63 412.91-22.9 409.11-22.9L409.11-22.9Q405.91-22.9 404.04-21.9 402.16-20.9 401.36-18.55 400.56-16.2 400.56-12.25L400.56-12.25Q400.56-8.05 401.49-5.63 402.41-3.2 404.44-2.2 406.46-1.2 409.66-1.2L409.66-1.2Q412.01-1.2 414.19-1.4 416.36-1.6 417.91-1.8L417.91-1.8 418.16-0.4Q417.26-0.1 415.71 0.13 414.16 0.35 412.46 0.48 410.76 0.6 409.41 0.6L409.41 0.6Q405.51 0.6 403.11-0.68 400.71-1.95 399.59-4.75 398.46-7.55 398.46-12.15L398.46-12.15Q398.46-16.8 399.54-19.55 400.61-22.3 402.94-23.5 405.26-24.7 409.01-24.7ZM437.4-24.7L437.4-24.7Q439.85-24.7 442.28-24.03 444.7-23.35 447.25-22.2L447.25-22.2 447.15-20.65Q444.3-21.75 442.13-22.33 439.95-22.9 437.65-22.9L437.65-22.9Q435.15-22.9 433.6-21.9 432.05-20.9 431.33-18.5 430.6-16.1 430.6-12.1L430.6-12.1Q430.6-8.05 431.3-5.68 432-3.3 433.55-2.25 435.1-1.2 437.6-1.2L437.6-1.2Q439.15-1.2 440.58-1.7 442-2.2 443.6-3.23 445.2-4.25 447.15-5.85L447.15-5.85 447.2-4.1Q444.7-1.9 442.28-0.65 439.85 0.6 437.2 0.6L437.2 0.6Q432.55 0.6 430.55-2.4 428.55-5.4 428.55-12.05L428.55-12.05Q428.55-16.65 429.45-19.43 430.35-22.2 432.3-23.45 434.25-24.7 437.4-24.7ZM446.85-35L448.85-35 448.85 0 447.35 0 447.05-4.2 446.85-4.45 446.85-21.3 447.05-22.1Q446.9-23.4 446.88-24.5 446.85-25.6 446.85-26.95L446.85-26.95 446.85-35ZM469.64-35.6L469.64-35.6Q474.49-35.6 476.99-33.73 479.49-31.85 479.49-27.85L479.49-27.85Q479.49-25.55 478.57-23.93 477.64-22.3 476.24-20.9 474.84-19.5 473.44-18.05 472.04-16.6 471.09-14.75 470.14-12.9 470.09-10.25L470.09-10.25 468.29-10.25Q468.29-13.1 469.19-15.1 470.09-17.1 471.47-18.6 472.84-20.1 474.19-21.4 475.54-22.7 476.47-24.18 477.39-25.65 477.44-27.65L477.44-27.65Q477.44-30.8 475.49-32.33 473.54-33.85 469.39-33.85L469.39-33.85Q466.89-33.85 465.32-33.77 463.74-33.7 462.47-33.58 461.19-33.45 459.49-33.2L459.49-33.2 459.24-34.65Q460.49-34.85 461.49-35.02 462.49-35.2 463.57-35.33 464.64-35.45 466.09-35.52 467.54-35.6 469.64-35.6ZM468.84-4.7L469.49-4.7Q469.94-4.7 470.14-4.5 470.34-4.3 470.34-3.85L470.34-3.85 470.34-0.85Q470.34-0.4 470.14-0.2 469.94 0 469.49 0L469.49 0 468.84 0Q468.39 0 468.19-0.2 467.99-0.4 467.99-0.85L467.99-0.85 467.99-3.85Q467.99-4.3 468.19-4.5 468.39-4.7 468.84-4.7L468.84-4.7Z" opacity="1" transform="matrix(1,0,0,1,0,0)" fill="#fabc2a" class="undefined-text-1" data-fill-palette-color="secondary" id="text-1"></path></svg></g></svg></g></svg></g></svg></g><g transform="matrix(1,0,0,1,159.29315524812685,0)"><svg viewBox="0 0 78.9112895037462 122.90460480442427" height="122.90460480442427" width="78.9112895037462"><g><svg xmlns="http://www.w3.org/2000/svg" xmlns:xlink="http://www.w3.org/1999/xlink" version="1.1" x="0" y="0" viewBox="22.974590301513672 4.985000133514404 57.79441452026367 90.01499938964844" enable-background="new 0 0 100 100" xml:space="preserve" height="122.90460480442427" width="78.9112895037462" class="icon-icon-0" data-fill-palette-color="accent" id="icon-0"><g fill="#fabc2a" data-fill-palette-color="accent"><path d="M27.678 26.78h9.189c0.081 0 0.159-0.013 0.239-0.02l10.795 13.085c1.643 1.762 4.333 1.961 6.213 0.535v3.714c-3.756 0.256-6.724 3.38-6.724 7.201 0 3.006 1.837 5.583 4.45 6.669v-0.197c0-1.528 1.244-2.771 2.771-2.771 1.526 0 2.77 1.243 2.77 2.771v0.197c2.613-1.086 4.45-3.663 4.45-6.669 0-3.821-2.968-6.945-6.723-7.201v-3.813c0.689 0.648 1.563 1.042 2.52 1.042 2.218 0 4.015-2.083 4.015-4.654V22.027l5.855 4.511c2.081 1.508 4.888 1.186 6.269-0.721 1.382-1.906 0.815-4.674-1.267-6.182l-5.67-4.368h8.878c2.571 0 4.654-1.748 4.654-3.903S78.28 7.46 75.709 7.46h-18.1c-2.454-1.535-6.026-2.475-10.725-2.475-3.886 0-7.51 0.716-10.477 1.893h-8.729c-2.375 0-4.3 3.186-4.3 7.115v5.671C23.378 23.595 25.304 26.78 27.678 26.78zM54.612 48.331c0.273 0 0.497-0.224 0.497-0.5v-0.695c0.702 0.215 1.217 0.861 1.217 1.633 0 0.945-0.77 1.713-1.714 1.713-0.946 0-1.716-0.769-1.716-1.713 0-0.772 0.515-1.418 1.218-1.633v0.695C54.114 48.107 54.337 48.331 54.612 48.331zM49.843 19.174c1.907 0 3.769 1.825 3.769 3.73v9.266l-7.136-8.651c-0.024-0.232-0.045-0.518-0.089-0.888C46.165 20.738 47.938 19.174 49.843 19.174z" fill="#fabc2a" data-fill-palette-color="accent"></path><path d="M76.131 68.937h-9.913c-2.132 0-3.923 2.384-4.466 5.627l1.241 0.217-7.028-0.224c0.457-0.387 0.753-0.957 0.753-1.601V57.768c0-1.163-0.944-2.108-2.105-2.108-1.162 0-2.107 0.945-2.107 2.108v15.188c0 0.594 0.249 1.128 0.645 1.511l-2.68-0.085c-1.066 0.032-2.024 0.471-2.738 1.16-0.358 0.369-0.659 0.795-0.892 1.26-0.251 0.549-0.389 1.159-0.374 1.803 0.052 2.223 1.902 4.03 4.125 4.03l0.125-0.001 0.027 0.001 10.234 0.717 5.295-0.284-4.615 0.708-10.961 0.644-0.105 0.001c-3.184 0-5.834-2.59-5.909-5.774-0.019-0.82 0.131-1.608 0.419-2.326l-9.491-3.555c-2.597-0.973-5.253-0.286-5.934 1.53-0.128 0.343-0.176 0.7-0.154 1.063l-0.569-0.173c-2.672-0.741-5.3 0.327-5.87 2.384-0.562 2.031 1.096 4.266 3.712 5.034-0.077 0.156-0.146 0.319-0.194 0.492-0.551 1.987 1.17 4.198 3.842 4.938l10.266 3.108C43.287 93.487 47.667 95 53.854 95c6.538 0 12.394-1.874 15.931-4.595h6.346c2.561 0 4.638-3.437 4.638-7.676v-6.118C80.769 72.372 78.691 68.937 76.131 68.937z" fill="#fabc2a" data-fill-palette-color="accent"></path></g></svg></g></svg></g><g></g></svg></g><defs></defs></svg><rect width="395.52" height="233.78777203036918" fill="none" stroke="none" visibility="hidden"></rect></g></svg></g></svg>